<?xml version="1.0" standalone="no"?>
<!DOCTYPE svg PUBLIC "-//W3C//DTD SVG 20010904//EN"
 "http://www.w3.org/TR/2001/REC-SVG-20010904/DTD/svg10.dtd">
<svg version="1.0" xmlns="http://www.w3.org/2000/svg"
 width="512.000000pt" height="512.000000pt" viewBox="0 0 512.000000 512.000000"
 preserveAspectRatio="xMidYMid meet">

<g transform="translate(0.000000,512.000000) scale(0.100000,-0.100000)"
fill="#e2e2e2" stroke="none">
<path d="M1250 4165 c-8 -2 -49 -9 -90 -15 -254 -42 -509 -198 -670 -412 -147
-194 -220 -414 -220 -658 0 -405 217 -769 572 -960 74 -39 205 -89 275 -105
l33 -7 -27 -46 c-62 -109 -251 -401 -382 -591 -139 -202 -141 -205 -141 -260
0 -68 27 -113 88 -142 49 -24 101 -22 255 11 409 89 800 326 1052 640 217 269
362 619 420 1010 26 182 38 437 25 556 -53 497 -423 889 -911 969 -82 13 -234
18 -279 10z"/>
<path d="M3582 4155 c-346 -61 -646 -286 -797 -599 -228 -471 -93 -1030 324
-1347 83 -63 263 -152 360 -178 41 -11 76 -23 79 -25 11 -11 -224 -383 -420
-665 -55 -78 -107 -160 -115 -181 -28 -71 6 -154 78 -191 53 -27 123 -22 300
22 550 134 986 480 1229 974 144 292 215 606 227 991 7 229 -3 323 -47 456
-127 381 -426 650 -814 734 -102 22 -303 27 -404 9z"/>
</g>
</svg>
